<?xml version="1.0" encoding="utf-8"?>
<!-- Generator: Adobe Illustrator 24.2.0, SVG Export Plug-In . SVG Version: 6.00 Build 0)  -->
<svg version="1.1" id="Layer_1" xmlns="http://www.w3.org/2000/svg" xmlns:xlink="http://www.w3.org/1999/xlink" x="0px" y="0px"
	 viewBox="0 0 151.9 101.9" style="enable-background:new 0 0 151.9 101.9;" xml:space="preserve">
	<g id="Layer_2_1_">
		<g id="Layer_1-2">
			<path d="M116.9,0v39.2c-0.6,0-1.1,0.1-1.6,0.1H28.5c-1.3-0.1-2.6-0.1-3.9,0c-0.8,0.1-1.5,0.4-2,1C18.2,45.2,14,50,9.7,54.9l-1,1
				V39.3H0V0H116.9z M23,20.1l-0.3,0c-1.4-2-2.8-4.1-4.2-6.1c-1.6-2.3-3.1-4.5-4.7-6.7C12.7,6,10.9,5.5,9.3,6.2
				C7.8,6.8,7.7,8,7.7,9.3v0.5c0,5.5,0,10.9,0,16.4c0,1.5,0,3,0.1,4.4c0,0.6,0.3,1.2,0.7,1.7c1,0.9,2.3,1.2,3.6,0.8
				c1.1-0.3,1.9-1.3,2-2.4c0.1-0.5,0.1-1.1,0.1-1.6c0-2.9,0-5.7,0-8.6c0-0.4,0.1-0.8,0.1-1.1c0.5,0.3,0.9,0.7,1.3,1.2
				c2.3,3.3,4.6,6.7,6.9,10c0.4,0.6,0.9,1.2,1.4,1.7c1.2,1,2.9,1.2,4.4,0.5c1.4-0.6,1.4-1.9,1.4-3.1c0-5,0-9.9,0-14.9
				c0-2,0-4.1-0.1-6.1c0-0.7-0.3-1.4-0.7-2c-1.2-0.9-2.9-1.1-4.3-0.4c-1.3,0.6-1.4,1.7-1.4,2.9c0,3.2,0,6.5,0,9.8
				C23.1,19.3,23,19.7,23,20.1z M57.3,20.1c-0.1-1.9-0.2-3.3-0.4-4.6c-0.5-4-2.2-7.2-6.1-9c-2.1-0.9-4.4-1.2-6.7-0.9
				c-4.4,0.1-8.2,3.3-9.1,7.6c-1.1,4.1-1.1,8.4,0,12.5c1.1,4.2,3.8,6.9,8.2,7.5c1.4,0.2,2.8,0.2,4.2,0.1c4.5-0.2,8.2-3.4,9.1-7.8
				C56.8,23.7,57.1,21.9,57.3,20.1L57.3,20.1z M97.3,6c-2.6,0-3,0.2-3.9,2.7c-2.1,5.8-4.1,11.7-6.2,17.5c-0.5,1.5-1.1,2.9-1.4,4.4
				c-0.4,1,0.1,2,1.1,2.4c0.2,0.1,0.4,0.1,0.5,0.1c2,0.5,4.1-0.6,4.8-2.5c0.3-0.8,0.6-1.6,0.8-2.4c0.2-0.8,0.8-1.3,1.6-1.2
				c1.8,0,3.6,0,5.3,0c0.8,0,1.5,0.5,1.6,1.2c0.2,0.8,0.5,1.6,0.8,2.4c0.7,2,1.5,2.5,3.6,2.5c2.9,0,3.7-1.1,2.7-3.8
				c-2.5-6.9-5-13.8-7.5-20.7C100.4,6.2,99.9,5.9,97.3,6z M72.6,22.5h-0.3c-0.4-0.9-0.8-1.8-1.1-2.8c-1.3-3.8-2.6-7.6-3.9-11.3
				c-0.3-0.9-0.7-1.9-1.7-2.2c-1.3-0.5-2.8-0.5-4.1,0c-0.9,0.2-1.4,1.2-1.2,2c0,0,0,0,0,0c0.1,0.5,0.2,0.9,0.4,1.4
				c0.9,2.5,1.8,5,2.8,7.5l4.8,13.1c0.3,1.2,1.1,2.2,2.2,2.7c2.1,0.9,4.6,0,5.5-2.2c0.1-0.2,0.2-0.4,0.2-0.6
				c2.4-6.8,4.9-13.5,7.2-20.3c0.2-0.5,0.3-1.1,0.4-1.6c0.3-0.8-0.2-1.8-1-2c-0.1,0-0.3-0.1-0.4-0.1C81.9,6,81.2,6,80.6,6
				c-1.8,0-2.5,0.5-3.1,2.2c-0.7,2-1.4,3.9-2,5.9C74.5,16.9,73.6,19.7,72.6,22.5z"/>
			<path d="M151.9,85.3h-8.6v16.6c-0.5-0.5-0.9-0.7-1.1-1c-4.3-4.9-8.7-9.8-13-14.7c-0.5-0.6-1.2-1-2-0.9c-33.3,0-66.7,0-100,0H26
				V45.8h125.9V85.3z M149.1,82.5V48.4H28.7v34.1h67.5h32c1-0.1,1.9,0.3,2.6,1c2.8,3.2,5.7,6.4,8.5,9.7c0.3,0.4,0.6,0.7,0.9,1.1
				l0.3-0.1V82.5L149.1,82.5z"/>
			<path d="M40.7,19.5c0.2-1.7,0.3-3.3,0.5-4.9c0.4-2.2,1.6-3.1,3.8-3.2c0.7,0,1.3,0,2,0.1c1.5,0.1,2.7,1.3,2.9,2.8
				c0.7,3.4,0.7,6.9,0,10.3c-0.2,1.5-1.4,2.6-2.9,2.8c-0.9,0.1-1.7,0.1-2.6,0c-1.6-0.1-3-1.3-3.2-2.9C41,22.9,40.9,21.1,40.7,19.5z"
				/>
			<path d="M97.5,16.1c0.5,1.5,1,2.9,1.4,4.4c0.2,0.6,0,1-0.7,1c-2.6,0.1-3,0.3-2.1-2.4c0.3-1,0.7-2,1.1-3L97.5,16.1z"/>
			<path d="M54.8,78.2c1.4-3.2,2.6-6.2,3.9-9.1c2.3-5.2,4.6-10.5,6.8-15.8c0.2-0.6,0.8-1,1.4-0.9c2.1,0,2.1,0,2.9,1.9l9.5,22.4
				c0.2,0.4,0.3,0.9,0.6,1.4c-1.3,0-2.4,0-3.6,0c-0.2,0-0.5-0.4-0.6-0.6c-0.7-1.6-1.4-3.3-2-4.9c-0.1-0.5-0.6-0.8-1.1-0.8
				c-3.5,0-7,0-10.5,0c-0.6-0.1-1.1,0.3-1.2,0.9c-0.6,1.6-1.2,3.1-1.8,4.7c-0.1,0.6-0.7,0.9-1.3,0.8C57,78.1,56,78.2,54.8,78.2z
				M72.2,68.7l-4.8-11.9l-4.8,11.9H72.2z"/>
			<path d="M105.7,63.5l4.1-4c2.2-2.2,4.4-4.4,6.7-6.6c0.4-0.3,0.9-0.5,1.4-0.6c1.2-0.1,2.4,0,4,0l-12.3,11.9l13.1,13.8
				c-1.8,0-3.2,0-4.7,0c-0.3,0-0.6-0.4-0.9-0.6l-10.2-11.1c-0.3-0.4-0.7-0.8-1.3-1.4v13h-3.4V52.5h3.4v11L105.7,63.5z"/>
			<path d="M123.2,75.2l2.8-2.4c1.3,1.9,3.6,2.9,5.9,2.7c2.3,0,4.3-1.7,4.6-4c0.2-1.2-0.4-2.4-1.5-2.9c-1.5-0.7-3.1-1.3-4.6-1.9
				c-0.7-0.3-1.4-0.5-2-0.8c-3-1.2-4.8-4.3-4.4-7.5c0.4-3.1,2.6-5.5,5.6-6.2c2.4-0.7,5-0.5,7.3,0.4c1.1,0.6,2.2,1.2,3.1,2l-2.9,2.7
				c-1.6-2-4.3-2.8-6.8-1.9c-1.5,0.4-2.6,1.7-2.7,3.3c-0.3,1.5,0.6,3,2,3.6c1.3,0.6,2.6,1,3.9,1.5c1.2,0.4,2.4,0.9,3.5,1.4
				c4.4,2.4,3.6,8.5,1,11c-2.9,2.8-6.4,3.1-10,2.2C126.1,78,124.4,76.9,123.2,75.2z"/>
			<path d="M38,52.5h19.6v3.2h-8.1v22.4h-3.5V55.7H38V52.5z"/>
			<path d="M98.4,74.9v3.2h-15c0-0.3-0.1-0.7-0.1-1.1c0-7.8,0-15.7,0-23.5c0-0.9,0.3-1.2,1.1-1.1s1.5,0,2.3,0v22.5H98.4z"/>
		</g>
	</g>
</svg>
