{
  "asset": {
    "version": "2.0",
    "generator": "THREE.GLTFExporter"
  },
  "scenes": [
    {
      "name": "Scene",
      "nodes": [
        0,
        3
      ]
    }
  ],
  "scene": 0,
  "nodes": [
    {
      "matrix": [
        1,
        0,
        0,
        0,
        0,
        0.3642346245381537,
        0.9313072201414259,
        0,
        0,
        -0.9313072201414259,
        0.3642346245381537,
        0,
        1.2655082687783692,
        -5.666636766310169,
        24.62591507427999,
        1
      ],
      "name": "PointLight",
      "extensions": {
        "KHR_lights_punctual": {
          "light": 0
        }
      }
    },
    {
      "matrix": [
        0.9999646167006664,
        0.008412214137155063,
        -1.3552047622943714e-20,
        0,
        -0.008412214137155063,
        0.9999646167006664,
        1.140067605364599e-22,
        0,
        1.3552527156068804e-20,
        0,
        1,
        0,
        0,
        0,
        0,
        1
      ],
      "name": "Mesh_Mesh_head_geo001_lambert2SG001",
      "extras": {
        "name": "Mesh_Mesh_head_geo.001_lambert2SG.001"
      },
      "mesh": 0
    },
    {
      "matrix": [
        1,
        0,
        0,
        0,
        0,
        2.220446049250313e-16,
        -1,
        0,
        0,
        1,
        2.220446049250313e-16,
        0,
        0,
        0,
        0,
        1
      ],
      "children": [
        1
      ]
    },
    {
      "matrix": [
        1,
        0,
        0,
        0,
        0,
        -0.03303719654103987,
        0.9994541228314128,
        0,
        0,
        -0.9994541228314128,
        -0.03303719654103987,
        0,
        0,
        0,
        0,
        1
      ],
      "name": "Stunning Snaget.glb",
      "children": [
        2
      ]
    }
  ],
  "extensions": {
    "KHR_lights_punctual": {
      "lights": [
        {
          "name": "PointLight",
          "color": [
            1,
            1,
            1
          ],
          "intensity": 1,
          "type": "point"
        }
      ]
    }
  },
  "bufferViews": [
    {
      "buffer": 0,
      "byteOffset": 0,
      "byteLength": 82944,
      "target": 34962,
      "byteStride": 12
    },
    {
      "buffer": 0,
      "byteOffset": 82944,
      "byteLength": 82944,
      "target": 34962,
      "byteStride": 12
    },
    {
      "buffer": 0,
      "byteOffset": 165888,
      "byteLength": 27648,
      "target": 34963
    }
  ],
  "buffers": [
    {
      "byteLength": 193536,
      "uri": "data:application/octet-stream;base64,"
    }
  ],
  "accessors": [
    {
      "bufferView": 0,
      "componentType": 5126,
      "count": 6912,
      "max": [
        30,
        20.1299991607666,
        8
      ],
      "min": [
        -30,
        -20.1299991607666,
        6.001999855041504
      ],
      "type": "VEC3"
    },
    {
      "bufferView": 1,
      "componentType": 5126,
      "count": 6912,
      "max": [
        0.7098039388656616,
        0.7215686440467834,
        0.6000000238418579
      ],
      "min": [
        0.7098039388656616,
        0.7215686440467834,
        0.6000000238418579
      ],
      "type": "VEC3"
    },
    {
      "bufferView": 2,
      "componentType": 5125,
      "count": 6912,
      "max": [
        6911
      ],
      "min": [
        0
      ],
      "type": "SCALAR"
    }
  ],
  "materials": [
    {
      "pbrMetallicRoughness": {
        "baseColorFactor": [
          0.996078431372549,
          1,
          1,
          1
        ],
        "metallicFactor": 0,
        "roughnessFactor": 1
      }
    }
  ],
  "meshes": [
    {
      "primitives": [
        {
          "mode": 4,
          "attributes": {
            "POSITION": 0,
            "COLOR_0": 1
          },
          "indices": 2,
          "material": 0
        }
      ]
    }
  ],
  "extensionsUsed": [
    "KHR_lights_punctual"
  ]
}