<?xml version="1.0" standalone="no"?>
<!DOCTYPE svg PUBLIC "-//W3C//DTD SVG 20010904//EN"
 "http://www.w3.org/TR/2001/REC-SVG-20010904/DTD/svg10.dtd">
<svg version="1.0" xmlns="http://www.w3.org/2000/svg"
 width="960.000000pt" height="960.000000pt" viewBox="0 0 960.000000 960.000000"
 preserveAspectRatio="xMidYMid meet">
<metadata>
Created by potrace 1.14, written by Peter Selinger 2001-2017
</metadata>
<g transform="translate(0.000000,960.000000) scale(0.100000,-0.100000)"
fill="#000000" stroke="none">
<path d="M1125 6295 c0 -968 0 -975 20 -975 11 -1 108 -2 215 -3 l195 -2 5
-408 5 -408 46 48 c26 26 180 201 344 388 163 187 308 349 322 360 24 20 41
20 2316 23 1261 1 2302 2 2315 2 l22 0 0 975 0 975 -2902 0 -2903 0 0 -975z
m2426 681 c192 -41 336 -191 386 -403 26 -111 26 -435 0 -546 -38 -160 -138
-297 -266 -361 -101 -52 -286 -71 -426 -45 -182 33 -325 165 -379 349 -73 245
-53 587 46 772 60 113 195 212 324 236 75 15 241 13 315 -2z m-1784 -32 c38
-28 70 -72 294 -399 106 -156 197 -281 201 -279 5 3 8 139 8 302 0 334 3 351
70 384 44 23 127 23 181 1 71 -28 69 -9 69 -661 l0 -579 -23 -34 c-54 -80
-201 -76 -280 7 -15 16 -118 161 -229 323 -112 162 -208 296 -215 298 -9 3
-13 -66 -15 -284 -3 -283 -3 -289 -27 -330 -33 -58 -72 -77 -149 -71 -67 5
-107 26 -129 69 -10 18 -13 164 -13 607 0 644 -2 629 63 658 47 21 159 14 194
-12z m2604 16 c19 -6 46 -21 58 -34 14 -15 66 -152 146 -386 68 -199 130 -369
136 -377 10 -11 14 -12 20 -1 4 7 57 162 119 343 124 364 148 423 182 444 35
22 165 27 211 8 50 -21 64 -53 49 -116 -9 -40 -202 -590 -357 -1017 -57 -157
-108 -204 -222 -204 -72 0 -140 31 -165 76 -27 47 -428 1151 -428 1178 0 33
35 74 73 85 44 13 134 13 178 1z m1717 -15 c16 -13 39 -48 51 -76 49 -114 402
-1097 407 -1134 13 -90 -89 -137 -221 -104 -63 16 -87 45 -125 154 -50 148
-37 140 -238 140 -191 0 -192 0 -218 -73 -41 -118 -57 -151 -82 -175 -83 -80
-245 -75 -272 8 -15 44 -16 41 160 540 266 755 247 706 292 732 14 7 61 12
120 13 88 0 99 -2 126 -25z"/>
<path d="M3298 6690 c-49 -15 -85 -49 -107 -101 -32 -74 -47 -263 -33 -415 19
-200 63 -259 200 -271 99 -8 163 9 205 56 48 53 62 132 62 341 0 327 -46 402
-242 399 -32 0 -70 -4 -85 -9z"/>
<path d="M5942 6433 c-31 -62 -64 -170 -60 -200 3 -27 4 -28 76 -31 60 -2 73
0 79 14 5 13 -59 240 -72 252 -2 2 -12 -13 -23 -35z"/>
<path d="M2420 4993 c0 -5 0 -447 -1 -983 l0 -975 2543 -3 2544 -2 199 -227
c414 -469 517 -583 526 -583 5 0 9 164 9 405 l0 405 33 0 c17 0 114 1 215 1
l182 0 0 984 0 985 -3125 0 c-1719 0 -3125 -3 -3125 -7z m6110 -973 l0 -850
-215 0 -215 0 0 -290 c0 -159 -4 -290 -8 -290 -4 0 -25 21 -47 48 -113 136
-459 522 -474 527 -9 4 -1142 6 -2518 5 l-2503 -1 0 851 0 850 2990 0 2990 0
0 -850z"/>
<path d="M7570 4683 c-119 -33 -217 -111 -263 -211 -32 -69 -31 -227 1 -293
54 -110 132 -167 317 -230 209 -71 264 -111 273 -197 6 -64 -10 -109 -53 -154
-57 -58 -97 -73 -200 -73 -107 0 -160 20 -225 85 l-41 41 -65 -56 c-35 -31
-64 -62 -64 -67 0 -19 79 -87 129 -112 74 -38 165 -58 265 -57 194 0 335 80
405 230 23 50 26 68 26 166 0 101 -2 114 -27 156 -31 53 -91 110 -145 138 -21
10 -85 33 -143 51 -208 64 -282 115 -296 206 -8 58 8 114 47 159 84 96 292 93
394 -5 l31 -30 67 61 68 62 -28 29 c-69 74 -158 107 -308 114 -76 3 -116 0
-165 -13z"/>
<path d="M3010 4585 l0 -85 200 0 200 0 0 -555 0 -555 85 0 85 0 2 556 3 556
203 -2 202 -1 0 86 0 85 -490 0 -490 0 0 -85z"/>
<path d="M4131 4037 c-151 -347 -276 -635 -278 -639 -2 -5 41 -8 96 -8 l99 0
53 133 c28 72 56 142 62 155 l10 22 301 0 301 0 61 -152 60 -153 103 -3 c56
-1 100 1 97 6 -4 6 -506 1192 -533 1260 -4 8 -30 12 -82 12 l-76 0 -274 -633z
m462 113 l115 -285 -230 -3 c-127 -1 -233 0 -236 3 -3 3 2 22 11 42 17 38 191
467 208 512 5 13 11 22 14 20 2 -3 55 -133 118 -289z"/>
<path d="M5267 4663 c-4 -3 -7 -291 -7 -640 l0 -633 375 0 375 0 0 80 0 80
-287 2 c-247 3 -288 5 -289 18 -1 8 -2 259 -3 558 l-1 542 -78 0 c-43 0 -82
-3 -85 -7z"/>
<path d="M6190 4030 l0 -640 85 0 85 0 0 321 c0 187 4 319 9 317 5 -1 140
-146 301 -320 l291 -318 125 0 125 0 -248 262 c-136 145 -283 299 -325 344
l-78 81 78 74 c242 232 522 507 522 512 0 4 -51 7 -113 7 l-112 0 -280 -280
c-154 -154 -283 -280 -287 -280 -5 0 -8 126 -8 280 l0 280 -85 0 -85 0 0 -640z"/>
</g>
</svg>
